<svg width="100" height="100" xmlns="http://www.w3.org/2000/svg" viewBox="0 0 21.65 2.89"><defs><style>.cls-1{fill:#ed0000;}</style></defs><title>资源 55</title><g id="图层_2" data-name="图层 2"><g id="图层_1-2" data-name="图层 1"><path class="cls-1" d="M18.88.87H2.77a1.4,1.4,0,0,1,.12.58A1.37,1.37,0,0,1,2.78,2H18.87a1.37,1.37,0,0,1-.11-.54A1.4,1.4,0,0,1,18.88.87Z"/><path class="cls-1" d="M2.77.87a1.44,1.44,0,1,0-1.32,2A1.43,1.43,0,0,0,2.78,2a1.37,1.37,0,0,0,.11-.54A1.4,1.4,0,0,0,2.77.87Z"/><path class="cls-1" d="M20.2,0a1.44,1.44,0,0,0-1.32.87,1.4,1.4,0,0,0-.12.58,1.37,1.37,0,0,0,.11.54,1.44,1.44,0,0,0,2.78-.54A1.45,1.45,0,0,0,20.2,0Z"/></g></g></svg>