<svg width="100" height="100" xmlns="http://www.w3.org/2000/svg" viewBox="0 0 20.95 8.17"><defs><style>.cls-1{fill:#1cb71c;}</style></defs><title>资源 56</title><g id="图层_2" data-name="图层 2"><g id="图层_1-2" data-name="图层 1"><path class="cls-1" d="M12,6.69,21,.75,20.39,0,11.61,5.69A1.46,1.46,0,0,1,12,6.69Z"/><path class="cls-1" d="M9.2,6.39H0v1H9.32a1.47,1.47,0,0,1-.17-.66A1.27,1.27,0,0,1,9.2,6.39Z"/><path class="cls-1" d="M11.61,5.69a1.46,1.46,0,0,0-1-.41A1.45,1.45,0,0,0,9.2,6.39a1.27,1.27,0,0,0,0,.34,1.47,1.47,0,0,0,.17.66,1.43,1.43,0,0,0,1.28.78,1.44,1.44,0,0,0,1.45-1.44s0,0,0,0A1.46,1.46,0,0,0,11.61,5.69Z"/></g></g></svg>