<svg width="100" height="100" xmlns="http://www.w3.org/2000/svg" viewBox="0 0 29.73 28.18"><defs><style>.cls-1{fill:#1cb71c;}</style></defs><title>资源 60</title><g id="图层_2" data-name="图层 2"><g id="图层_1-2" data-name="图层 1"><polygon class="cls-1" points="20.67 12.06 14.87 2 9.11 11.97 8.24 11.47 14.87 0 21.54 11.56 20.67 12.06"/><polygon class="cls-1" points="29.73 25.75 15.95 25.75 15.95 24.75 28 24.75 22.16 14.64 23.03 14.14 29.73 25.75"/><polygon class="cls-1" points="13.78 25.75 0 25.75 6.75 14.05 7.62 14.55 1.73 24.75 13.78 24.75 13.78 25.75"/><rect class="cls-1" x="12.8" y="20.18" width="1" height="8"/><rect class="cls-1" x="15.78" y="20.18" width="1" height="8"/><rect class="cls-1" x="18.24" y="14.11" width="8" height="1" transform="translate(-4.35 13.77) rotate(-31.5)"/><rect class="cls-1" x="16.69" y="11.57" width="8" height="1" transform="translate(-3.26 12.59) rotate(-31.5)"/><rect class="cls-1" x="7.19" y="10.61" width="1" height="8" transform="translate(-8.78 13.53) rotate(-58.5)"/><rect class="cls-1" x="8.74" y="8.07" width="1" height="8" transform="translate(-5.87 13.64) rotate(-58.5)"/></g></g></svg>