<svg width="100" height="100" xmlns="http://www.w3.org/2000/svg" viewBox="0 0 23 19"><defs><style>.cls-1{fill:#1cb71c;}</style></defs><title>资源 67</title><g id="图层_2" data-name="图层 2"><g id="图层_1-2" data-name="图层 1"><path class="cls-1" d="M11.5,19C5.16,19,0,14.74,0,9.5S5.16,0,11.5,0,23,4.26,23,9.5,17.84,19,11.5,19Zm0-18C5.71,1,1,4.81,1,9.5S5.71,18,11.5,18,22,14.19,22,9.5,17.29,1,11.5,1Z"/><path class="cls-1" d="M15.28,12.65c-1.36,0-3-1.11-5.17-3.46A3.59,3.59,0,0,0,7.32,7.68c-1.47.12-2.62,1.89-3.3,3a3.52,3.52,0,0,1-.76,1l-.56-.83.28.41-.29-.4a7.15,7.15,0,0,0,.49-.7C4,8.87,5.27,6.85,7.23,6.68a4.55,4.55,0,0,1,3.62,1.83c2,2.17,3.52,3.22,4.55,3.13a1.66,1.66,0,0,0,1.24-.9,37.07,37.07,0,0,0,2.13-4l.91.4a35.75,35.75,0,0,1-2.2,4.15,2.64,2.64,0,0,1-2,1.36Z"/></g></g></svg>